<?xml version="1.0" standalone="no"?>
<!DOCTYPE svg PUBLIC "-//W3C//DTD SVG 20010904//EN"
 "http://www.w3.org/TR/2001/REC-SVG-20010904/DTD/svg10.dtd">
<svg version="1.0" xmlns="http://www.w3.org/2000/svg"
 width="1549.000000pt" height="2050.000000pt" viewBox="0 0 1549.000000 2050.000000"
 preserveAspectRatio="xMidYMid meet">

<g transform="translate(0.000000,2050.000000) scale(0.100000,-0.100000)"
fill="#000000" stroke="none">
<path d="M9645 20490 c-1758 -55 -3464 -603 -4965 -1595 -1242 -821 -2336
-1970 -3121 -3280 -829 -1382 -1341 -2936 -1498 -4546 -62 -631 -73 -1283 -31
-1829 154 -1984 905 -3831 2196 -5400 246 -299 515 -586 839 -897 1809 -1732
4280 -2785 6860 -2922 495 -27 552 -26 1070 18 970 83 1366 132 1825 226 432
89 848 216 1186 362 251 108 1463 688 1445 691 -11 2 -334 -11 -718 -29 -1138
-53 -1464 -43 -2073 62 -2399 414 -4632 2271 -5743 4775 -69 155 -85 201 -89
254 -4 51 -26 116 -101 305 -290 728 -464 1428 -556 2235 -46 406 -61 683 -61
1166 0 510 18 821 76 1283 330 2651 1740 5018 3799 6377 1086 716 2256 1112
3530 1194 88 5 493 10 899 10 412 0 736 4 731 9 -20 18 -1075 587 -1253 675
-920 459 -1937 739 -3022 830 -391 34 -740 41 -1225 26z m1145 -604 c670 -58
1258 -174 1835 -363 l200 -66 -170 -29 c-2128 -362 -4060 -1640 -5381 -3558
-1303 -1892 -1912 -4250 -1718 -6660 78 -975 284 -1880 617 -2710 48 -119 73
-196 78 -240 10 -85 25 -127 127 -360 275 -626 650 -1266 1072 -1829 291 -388
519 -650 875 -1007 458 -458 854 -784 1360 -1119 617 -408 1210 -697 1888
-921 224 -73 653 -188 806 -215 52 -9 68 -15 54 -20 -33 -12 -435 -67 -688
-94 -132 -14 -454 -44 -715 -66 -458 -39 -485 -41 -760 -35 -1179 24 -2388
261 -3490 685 -2990 1152 -5207 3598 -5934 6547 -138 559 -215 1093 -247 1709
-14 270 -6 866 16 1165 107 1467 493 2836 1155 4100 1005 1914 2583 3432 4471
4299 1029 472 2110 737 3264 801 245 13 1072 4 1285 -14z"/>
</g>
</svg>
