<?xml version="1.0" standalone="no"?>
<!DOCTYPE svg PUBLIC "-//W3C//DTD SVG 20010904//EN"
 "http://www.w3.org/TR/2001/REC-SVG-20010904/DTD/svg10.dtd">
<svg version="1.0" xmlns="http://www.w3.org/2000/svg"
 width="512.000000pt" height="512.000000pt" viewBox="0 0 512.000000 512.000000"
 preserveAspectRatio="xMidYMid meet">

<g transform="translate(0.000000,512.000000) scale(0.100000,-0.100000)"
fill="#000000" stroke="none">
<path d="M1202 4465 c-28 -12 -367 -350 -1014 -1011 -165 -169 -177 -183 -183
-226 -4 -28 -2 -61 5 -82 15 -45 1142 -1194 1192 -1215 44 -18 118 -10 155 17
59 42 81 138 47 204 -9 17 -206 222 -437 457 l-422 426 1277 5 c1270 5 1277 5
1304 26 93 69 96 193 6 262 l-35 27 -1273 5 -1273 5 424 432 c234 237 430 444
435 458 38 100 -28 212 -131 221 -26 3 -58 -2 -77 -11z"/>
<path d="M3782 3183 c-18 -9 -42 -29 -54 -46 -29 -41 -36 -123 -14 -166 9 -17
207 -224 439 -459 l422 -427 -1277 -5 c-1270 -5 -1277 -5 -1304 -26 -93 -69
-96 -193 -6 -262 l35 -27 1274 -5 1273 -5 -425 -432 c-234 -237 -430 -444
-435 -458 -48 -127 65 -254 192 -215 34 10 109 81 467 443 766 776 738 747
746 799 4 28 2 61 -5 83 -15 46 -1147 1198 -1193 1215 -43 15 -97 12 -135 -7z"/>
</g>
</svg>
