<?xml version="1.0" standalone="no"?>
<!DOCTYPE svg PUBLIC "-//W3C//DTD SVG 20010904//EN"
 "http://www.w3.org/TR/2001/REC-SVG-20010904/DTD/svg10.dtd">
<svg version="1.0" xmlns="http://www.w3.org/2000/svg"
 width="128.000000pt" height="128.000000pt" viewBox="0 0 128.000000 128.000000"
 preserveAspectRatio="xMidYMid meet">

<g transform="translate(0.000000,128.000000) scale(0.100000,-0.100000)"
fill="#000000" stroke="none">
<path d="M570 1181 c0 -25 -5 -30 -42 -39 -92 -24 -182 -105 -213 -192 -23
-64 -19 -119 13 -181 33 -66 88 -109 176 -139 l66 -22 0 -134 0 -135 -22 7
c-42 12 -103 46 -129 71 l-26 24 -62 -51 c-33 -28 -61 -55 -61 -60 0 -33 181
-142 261 -155 35 -6 39 -10 39 -36 0 -30 0 -30 53 -27 48 3 52 5 55 30 3 21
10 28 35 34 91 19 191 96 231 177 70 140 -14 301 -194 374 l-70 28 0 114 0
113 28 -6 c15 -4 49 -20 75 -36 27 -17 52 -30 56 -30 3 0 31 25 61 55 l54 55
-24 25 c-32 34 -127 81 -195 96 -51 11 -55 14 -55 41 0 27 -1 28 -55 28 -54 0
-55 -1 -55 -29z m82 -28 c3 -24 9 -28 64 -39 58 -12 137 -47 178 -79 19 -15
19 -15 -5 -41 -41 -44 -53 -46 -107 -18 -27 14 -68 28 -91 31 l-41 6 0 -141 0
-140 38 -12 c274 -88 338 -331 124 -469 -26 -16 -72 -37 -102 -44 -48 -12 -55
-18 -58 -41 -3 -20 -9 -26 -27 -26 -18 0 -24 6 -27 27 -3 24 -9 29 -43 34 -64
11 -140 44 -195 84 -27 20 -50 40 -50 44 0 4 18 22 39 39 l39 32 52 -35 c49
-33 106 -55 143 -55 16 0 17 12 15 161 l-3 160 -66 22 c-82 28 -142 68 -172
116 -28 46 -30 149 -4 198 38 71 123 134 204 151 31 6 39 12 41 35 3 21 9 27
27 27 18 0 24 -6 27 -27z"/>
<path d="M535 994 c-83 -43 -117 -118 -79 -173 16 -22 106 -71 132 -71 9 0 12
33 12 130 0 144 -2 147 -65 114z m31 -201 c-3 -3 -22 3 -43 13 -69 34 -66 103
7 152 l35 23 3 -92 c1 -50 1 -94 -2 -96z"/>
<path d="M650 461 c0 -137 2 -151 18 -151 33 1 97 37 130 74 36 42 41 82 16
125 -19 32 -97 87 -136 97 l-28 6 0 -151z m69 94 c39 -20 81 -72 81 -99 0 -32
-34 -73 -81 -96 l-39 -20 0 115 c0 63 2 115 5 115 4 0 19 -7 34 -15z"/>
</g>
</svg>
