<?xml version="1.0" standalone="no"?>
<!DOCTYPE svg PUBLIC "-//W3C//DTD SVG 20010904//EN"
 "http://www.w3.org/TR/2001/REC-SVG-20010904/DTD/svg10.dtd">
<svg version="1.0" xmlns="http://www.w3.org/2000/svg"
 width="1705.000000pt" height="2435.000000pt" viewBox="0 0 1705.000000 2435.000000"
 preserveAspectRatio="xMidYMid meet">

<g transform="translate(0.000000,2435.000000) scale(0.100000,-0.100000)"
fill="#000000" stroke="none">
<path d="M1726 24323 c-587 -78 -1115 -421 -1428 -926 -153 -245 -255 -544
-287 -839 -15 -137 -15 -20629 0 -20766 39 -365 175 -710 391 -995 78 -103
240 -271 338 -350 275 -223 618 -371 975 -422 99 -14 770 -15 6860 -13 l6750
3 115 26 c417 94 740 268 1021 548 302 303 490 674 566 1121 17 100 18 564 21
10355 2 6980 -1 10299 -8 10404 -18 270 -78 503 -190 738 -298 624 -892 1046
-1585 1123 -59 6 -2354 10 -6760 9 -5802 -1 -6684 -3 -6779 -16z m13647 -730
c488 -132 851 -523 945 -1018 16 -85 17 -719 17 -10405 0 -9924 -1 -10318 -18
-10405 -100 -497 -456 -878 -945 -1013 l-97 -27 -6715 -3 c-6057 -2 -6723 -1
-6799 13 -395 74 -741 335 -920 693 -49 97 -100 259 -116 370 -13 88 -15 1320
-12 10423 2 9764 4 10328 20 10394 27 110 56 193 98 282 177 374 548 655 949
718 70 11 1238 13 6780 12 l6695 -2 118 -32z"/>
<path d="M3965 21664 c-730 -113 -1299 -641 -1459 -1355 -45 -200 -47 -284
-43 -1379 4 -998 4 -1028 25 -1137 47 -248 160 -516 300 -713 86 -122 290
-326 412 -412 196 -140 462 -252 713 -300 l112 -22 4625 -3 c3221 -3 4661 -1
4745 7 404 36 761 191 1045 454 259 239 428 522 515 861 56 218 57 247 53
1420 l-4 1070 -27 121 c-165 746 -738 1284 -1480 1389 -150 21 -9394 21 -9532
-1z m9482 -709 c438 -83 782 -438 843 -870 8 -56 10 -386 8 -1120 l-4 -1040
-22 -85 c-102 -382 -417 -684 -802 -767 -82 -17 -268 -18 -4730 -18 -3775 0
-4657 2 -4710 13 -457 92 -793 449 -850 906 -14 110 -13 1963 0 2076 31 249
137 459 321 634 144 137 312 227 498 266 82 18 285 19 4727 19 4103 1 4651 -1
4721 -14z"/>
<path d="M3320 13135 c-349 -72 -607 -333 -676 -683 -21 -112 -20 -932 2
-1040 66 -324 305 -574 632 -664 72 -20 107 -22 505 -26 474 -4 547 1 692 49
230 76 437 270 519 486 61 161 61 165 61 688 -1 466 -1 482 -23 560 -92 329
-338 562 -665 629 -102 21 -944 22 -1047 1z m961 -718 c70 -46 70 -46 67 -489
-3 -383 -4 -398 -24 -424 -11 -15 -33 -37 -48 -48 -27 -20 -39 -21 -434 -21
l-407 0 -33 23 c-64 46 -63 39 -60 491 l3 410 30 31 c17 18 39 36 50 40 11 5
200 9 421 9 401 1 401 1 435 -22z"/>
<path d="M8206 13134 c-322 -69 -567 -303 -658 -629 -22 -78 -22 -94 -23 -565
0 -529 -1 -516 61 -683 81 -215 289 -410 519 -486 145 -48 218 -53 692 -49
398 4 433 6 505 26 329 90 567 342 633 668 23 117 18 1000 -7 1084 -29 98 -57
165 -96 228 -134 221 -329 359 -580 408 -107 21 -946 19 -1046 -2z m991 -737
l38 -37 3 -410 c3 -453 4 -446 -60 -492 l-33 -23 -393 -3 c-383 -3 -395 -2
-437 18 -32 16 -49 33 -64 64 -20 40 -21 59 -21 427 0 429 0 430 69 477 l35
23 413 -3 413 -3 37 -38z"/>
<path d="M13105 13135 c-347 -77 -601 -331 -670 -671 -14 -69 -16 -148 -13
-565 l3 -484 29 -85 c52 -156 118 -261 227 -366 112 -106 233 -174 384 -216
75 -20 105 -22 509 -26 474 -4 547 1 691 49 271 90 476 312 557 604 22 77 22
96 23 555 0 459 -1 478 -22 562 -85 331 -337 575 -665 642 -104 21 -958 22
-1053 1z m963 -715 c20 -13 41 -38 53 -65 19 -43 20 -65 17 -434 -3 -375 -4
-391 -24 -417 -11 -15 -33 -37 -48 -48 -26 -20 -41 -21 -424 -24 -443 -3 -443
-3 -489 67 -23 34 -23 34 -23 440 0 381 1 408 19 435 10 15 32 37 47 47 27 18
54 19 434 19 389 0 406 -1 438 -20z"/>
<path d="M3380 9004 c-73 -12 -169 -39 -231 -65 -201 -82 -385 -274 -463 -480
-52 -140 -56 -183 -56 -664 0 -490 3 -526 62 -678 80 -208 277 -401 489 -481
142 -53 198 -58 702 -54 l462 4 90 27 c298 93 513 313 597 612 22 78 22 94 23
565 0 474 0 487 -23 570 -81 301 -297 524 -597 617 l-90 27 -470 2 c-258 1
-481 0 -495 -2z m890 -722 c22 -12 44 -35 58 -62 22 -44 22 -49 22 -430 0
-380 -1 -386 -23 -424 -43 -76 -41 -76 -487 -76 -377 0 -397 1 -428 20 -18 11
-41 34 -52 52 -19 31 -20 51 -20 433 0 382 1 402 20 433 11 18 34 41 52 52 31
19 51 20 428 20 363 0 398 -1 430 -18z"/>
<path d="M8247 9000 c-339 -59 -606 -301 -699 -635 -22 -78 -23 -93 -23 -570
0 -478 1 -492 23 -570 85 -301 298 -519 597 -612 l90 -27 462 -4 c504 -4 560
1 702 54 212 80 409 273 489 481 59 152 62 188 62 678 0 481 -4 524 -56 664
-76 203 -263 398 -456 478 -164 67 -157 67 -673 69 -258 1 -492 -2 -518 -6z
m921 -720 c18 -11 41 -34 52 -52 19 -31 20 -51 20 -433 0 -382 -1 -402 -20
-433 -11 -18 -34 -41 -52 -52 -31 -19 -51 -20 -428 -20 -446 0 -444 0 -487 76
-22 39 -23 44 -23 429 0 385 1 390 23 429 43 76 41 76 487 76 377 0 397 -1
428 -20z"/>
<path d="M13117 8994 c-267 -49 -503 -231 -618 -478 -16 -35 -40 -94 -52 -132
l-22 -69 -3 -2560 c-2 -2332 -1 -2567 14 -2635 73 -337 332 -596 666 -664 114
-24 943 -23 1056 0 164 34 296 102 420 218 117 110 199 250 244 418 l23 83 3
2480 c2 1686 -1 2512 -8 2579 -38 362 -283 650 -636 748 -76 21 -99 22 -544
24 -369 2 -481 0 -543 -12z m943 -715 c20 -11 45 -35 56 -52 19 -31 19 -91 22
-2490 2 -2415 2 -2460 -17 -2503 -12 -26 -33 -52 -53 -64 -32 -19 -49 -20
-438 -20 -380 0 -407 1 -434 19 -15 10 -37 32 -47 47 -18 28 -19 96 -19 2510
l0 2481 22 28 c12 15 35 36 52 46 29 18 57 19 425 19 381 0 394 -1 431 -21z"/>
<path d="M3385 4860 c-375 -52 -665 -319 -739 -682 -22 -108 -23 -928 -2
-1040 54 -275 225 -497 471 -614 167 -79 152 -77 685 -82 516 -4 555 -1 694
49 262 95 461 314 538 594 20 75 22 105 26 509 4 473 -1 547 -49 691 -74 224
-260 426 -471 512 -162 65 -172 66 -653 69 -242 1 -467 -1 -500 -6z m891 -726
c15 -11 37 -33 48 -48 20 -26 21 -41 24 -424 3 -443 3 -443 -67 -489 -34 -23
-34 -23 -443 -23 l-409 0 -42 39 -42 40 -3 413 c-2 400 -2 414 18 446 12 19
39 42 63 53 40 18 64 19 434 16 378 -2 393 -3 419 -23z"/>
<path d="M8266 4859 c-321 -43 -593 -268 -696 -576 -47 -143 -52 -206 -48
-684 4 -410 6 -438 26 -514 77 -280 276 -499 538 -594 139 -50 178 -53 694
-49 533 5 518 3 685 82 246 117 417 339 471 614 21 112 20 932 -2 1040 -67
325 -310 579 -637 664 -77 20 -109 21 -522 24 -242 1 -471 -2 -509 -7z m891
-719 c25 -11 51 -33 63 -52 20 -32 20 -46 18 -446 l-3 -413 -42 -40 -42 -39
-409 0 c-409 0 -409 0 -443 23 -69 46 -69 48 -69 474 0 396 2 417 43 462 45
49 56 50 462 50 354 1 383 -1 422 -19z"/>
</g>
</svg>
